<svg xmlns="http://www.w3.org/2000/svg" xmlns:xlink="http://www.w3.org/1999/xlink" width="500" zoomAndPan="magnify" viewBox="0 0 375 374.999991" height="500" preserveAspectRatio="xMidYMid meet" version="1.0"><defs><clipPath id="44c54e4eb8"><path d="M 32.046875 66 L 70 66 L 70 104 L 32.046875 104 Z M 32.046875 66 " clip-rule="nonzero"/></clipPath></defs><path fill="#f9ed32" d="M 195.453125 51.710938 C 196.117188 51.710938 196.785156 51.679688 197.449219 51.613281 C 198.109375 51.546875 198.769531 51.449219 199.425781 51.320312 C 200.078125 51.191406 200.722656 51.027344 201.363281 50.835938 C 202 50.640625 202.628906 50.417969 203.242188 50.164062 C 203.859375 49.90625 204.460938 49.625 205.050781 49.308594 C 205.640625 48.996094 206.210938 48.652344 206.765625 48.285156 C 207.320312 47.914062 207.855469 47.519531 208.371094 47.09375 C 208.886719 46.671875 209.378906 46.226562 209.851562 45.753906 C 210.324219 45.285156 210.769531 44.792969 211.195312 44.277344 C 211.617188 43.761719 212.015625 43.226562 212.382812 42.675781 C 212.753906 42.121094 213.097656 41.550781 213.414062 40.960938 C 213.726562 40.375 214.011719 39.773438 214.269531 39.160156 C 214.523438 38.542969 214.746094 37.917969 214.941406 37.28125 C 215.136719 36.640625 215.296875 35.996094 215.429688 35.34375 C 215.558594 34.691406 215.65625 34.03125 215.722656 33.371094 C 215.789062 32.707031 215.820312 32.042969 215.820312 31.375 C 215.824219 30.710938 215.789062 30.046875 215.726562 29.382812 C 215.660156 28.71875 215.5625 28.0625 215.433594 27.40625 C 215.304688 26.753906 215.140625 26.109375 214.949219 25.472656 C 214.757812 24.832031 214.53125 24.207031 214.277344 23.589844 C 214.023438 22.976562 213.738281 22.375 213.425781 21.785156 C 213.109375 21.199219 212.769531 20.628906 212.398438 20.074219 C 212.027344 19.519531 211.632812 18.984375 211.210938 18.46875 C 210.789062 17.953125 210.339844 17.460938 209.871094 16.988281 C 209.398438 16.519531 208.90625 16.070312 208.390625 15.648438 C 207.875 15.222656 207.339844 14.828125 206.785156 14.457031 C 206.230469 14.085938 205.660156 13.742188 205.074219 13.429688 C 204.484375 13.113281 203.882812 12.828125 203.269531 12.574219 C 202.652344 12.316406 202.023438 12.09375 201.386719 11.898438 C 200.75 11.703125 200.101562 11.542969 199.449219 11.410156 C 198.796875 11.28125 198.136719 11.183594 197.472656 11.117188 C 196.808594 11.050781 196.144531 11.015625 195.476562 11.015625 C 194.8125 11.015625 194.144531 11.046875 193.480469 11.109375 C 192.816406 11.175781 192.160156 11.273438 191.503906 11.402344 C 190.851562 11.53125 190.203125 11.691406 189.566406 11.882812 C 188.925781 12.074219 188.300781 12.300781 187.683594 12.554688 C 187.066406 12.808594 186.464844 13.089844 185.875 13.402344 C 185.285156 13.71875 184.714844 14.058594 184.160156 14.425781 C 183.605469 14.796875 183.070312 15.191406 182.554688 15.613281 C 182.035156 16.035156 181.542969 16.480469 181.070312 16.953125 C 180.597656 17.421875 180.148438 17.914062 179.726562 18.429688 C 179.300781 18.941406 178.90625 19.476562 178.53125 20.03125 C 178.160156 20.582031 177.816406 21.152344 177.503906 21.742188 C 177.1875 22.328125 176.902344 22.929688 176.644531 23.542969 C 176.390625 24.160156 176.164062 24.785156 175.96875 25.421875 C 175.773438 26.058594 175.609375 26.703125 175.480469 27.355469 C 175.347656 28.011719 175.25 28.667969 175.183594 29.332031 C 175.117188 29.992188 175.082031 30.65625 175.082031 31.324219 C 175.082031 31.992188 175.113281 32.65625 175.179688 33.320312 C 175.246094 33.984375 175.34375 34.640625 175.472656 35.296875 C 175.601562 35.949219 175.765625 36.597656 175.957031 37.234375 C 176.152344 37.875 176.375 38.5 176.628906 39.117188 C 176.886719 39.734375 177.171875 40.335938 177.484375 40.921875 C 177.800781 41.511719 178.140625 42.082031 178.511719 42.636719 C 178.882812 43.191406 179.28125 43.726562 179.703125 44.242188 C 180.125 44.757812 180.574219 45.253906 181.046875 45.726562 C 181.515625 46.199219 182.011719 46.644531 182.527344 47.070312 C 183.042969 47.492188 183.578125 47.890625 184.132812 48.261719 C 184.6875 48.632812 185.257812 48.976562 185.847656 49.289062 C 186.433594 49.605469 187.035156 49.890625 187.652344 50.148438 C 188.269531 50.402344 188.898438 50.628906 189.535156 50.824219 C 190.175781 51.019531 190.820312 51.179688 191.476562 51.3125 C 192.128906 51.445312 192.789062 51.542969 193.453125 51.609375 C 194.117188 51.675781 194.785156 51.710938 195.453125 51.710938 Z M 195.453125 51.710938 " fill-opacity="0.78" fill-rule="evenodd"/><path fill="#662d91" d="M 294.128906 67.398438 C 296.882812 70.589844 299.410156 73.949219 301.707031 77.484375 C 304.007812 81.015625 306.054688 84.6875 307.855469 88.496094 C 309.65625 92.308594 311.191406 96.21875 312.460938 100.238281 C 313.730469 104.253906 314.722656 108.339844 315.441406 112.492188 C 319.570312 136.613281 313.269531 158.941406 317.6875 173.953125 C 318.722656 177.316406 320.109375 180.53125 321.84375 183.597656 C 320.8125 184.199219 319.761719 184.769531 318.699219 185.308594 C 317.632812 185.847656 316.554688 186.355469 315.460938 186.835938 C 314.367188 187.3125 313.257812 187.757812 312.140625 188.175781 C 311.019531 188.589844 309.890625 188.972656 308.746094 189.320312 C 307.605469 189.671875 306.457031 189.988281 305.296875 190.273438 C 304.136719 190.558594 302.96875 190.808594 301.796875 191.023438 C 300.621094 191.242188 299.441406 191.425781 298.257812 191.574219 C 297.074219 191.726562 295.882812 191.839844 294.691406 191.921875 C 293.5 192.003906 292.308594 192.050781 291.113281 192.0625 C 289.921875 192.078125 288.726562 192.054688 287.535156 192 C 286.34375 191.945312 285.152344 191.855469 283.964844 191.734375 C 282.777344 191.609375 281.59375 191.453125 280.414062 191.261719 C 279.234375 191.070312 278.0625 190.847656 276.898438 190.589844 C 275.730469 190.328125 274.574219 190.039062 273.425781 189.714844 C 272.277344 189.390625 271.136719 189.03125 270.007812 188.640625 C 268.878906 188.253906 267.765625 187.832031 266.660156 187.378906 C 265.554688 186.921875 264.464844 186.4375 263.386719 185.921875 C 262.3125 185.40625 261.25 184.859375 260.207031 184.28125 C 259.160156 183.707031 258.132812 183.097656 257.125 182.464844 C 256.113281 181.828125 255.121094 181.164062 254.148438 180.46875 C 253.175781 179.777344 252.226562 179.058594 251.296875 178.308594 C 250.363281 177.5625 249.457031 176.789062 248.570312 175.992188 C 247.683594 175.191406 246.820312 174.367188 245.980469 173.519531 C 245.140625 172.671875 244.328125 171.796875 243.539062 170.902344 C 242.75 170.007812 241.988281 169.089844 241.25 168.152344 C 240.515625 167.210938 239.804688 166.253906 239.125 165.273438 C 238.445312 164.292969 237.789062 163.296875 237.167969 162.277344 C 236.542969 161.261719 235.949219 160.226562 235.382812 159.175781 C 234.820312 158.125 234.285156 157.058594 233.78125 155.976562 C 233.277344 154.894531 232.808594 153.800781 232.367188 152.691406 C 231.925781 151.582031 231.519531 150.464844 231.140625 149.332031 C 230.765625 148.199219 230.421875 147.058594 230.113281 145.90625 C 229.800781 144.753906 229.523438 143.59375 229.28125 142.425781 C 229.035156 141.257812 228.824219 140.085938 228.648438 138.90625 C 228.472656 137.726562 228.332031 136.542969 228.222656 135.355469 C 228.113281 134.167969 228.039062 132.976562 228 131.785156 C 227.957031 130.59375 227.953125 129.402344 227.980469 128.207031 C 228.007812 127.015625 228.070312 125.824219 228.167969 124.636719 C 228.265625 123.445312 228.394531 122.261719 228.558594 121.082031 C 228.722656 119.898438 228.921875 118.722656 229.15625 117.554688 C 229.386719 116.382812 229.652344 115.222656 229.949219 114.066406 C 230.25 112.910156 230.582031 111.765625 230.945312 110.628906 C 231.3125 109.496094 231.707031 108.371094 232.136719 107.257812 C 232.566406 106.144531 233.027344 105.042969 233.519531 103.957031 C 234.011719 102.871094 234.535156 101.800781 235.089844 100.742188 C 235.640625 99.6875 236.226562 98.644531 236.839844 97.621094 C 237.453125 96.601562 238.097656 95.59375 238.765625 94.609375 C 239.4375 93.621094 240.136719 92.65625 240.863281 91.710938 C 241.589844 90.761719 242.34375 89.839844 243.125 88.933594 C 243.902344 88.03125 244.710938 87.152344 245.539062 86.292969 C 246.371094 85.4375 247.222656 84.605469 248.101562 83.796875 C 248.980469 82.988281 249.882812 82.207031 250.804688 81.449219 C 251.726562 80.691406 252.671875 79.964844 253.636719 79.261719 C 254.601562 78.558594 255.585938 77.882812 256.589844 77.238281 C 257.59375 76.59375 258.617188 75.976562 259.65625 75.386719 C 260.695312 74.800781 261.75 74.242188 262.820312 73.714844 C 263.890625 73.1875 264.976562 72.691406 266.078125 72.226562 C 267.175781 71.761719 268.289062 71.332031 269.414062 70.929688 C 270.539062 70.527344 271.671875 70.160156 272.820312 69.824219 C 273.964844 69.488281 275.117188 69.183594 276.28125 68.914062 C 277.445312 68.644531 278.613281 68.40625 279.792969 68.203125 C 280.96875 68 282.148438 67.832031 283.335938 67.695312 C 284.523438 67.5625 285.710938 67.460938 286.902344 67.394531 C 288.097656 67.324219 289.289062 67.292969 290.484375 67.292969 C 291.660156 67.292969 292.902344 67.332031 294.128906 67.398438 Z M 294.128906 67.398438 " fill-opacity="0.78" fill-rule="evenodd"/><path fill="#92278f" d="M 316.65625 123.101562 C 317.960938 143.085938 313.925781 161.175781 317.6875 174.003906 C 324.128906 195.917969 352.679688 215.769531 339.339844 227.046875 C 335.117188 230.425781 327.851562 230.648438 323.59375 233.964844 C 316.8125 239.25 321.449219 244.964844 322.050781 249.089844 C 322.339844 251.046875 320.5625 254.195312 314.695312 258.019531 C 319.125 261.28125 318.71875 264.046875 317.140625 266.59375 C 314.980469 268.070312 312.757812 269.449219 310.476562 270.726562 C 308.191406 272.003906 305.855469 273.175781 303.464844 274.242188 C 301.074219 275.308594 298.640625 276.265625 296.167969 277.113281 C 293.691406 277.960938 291.179688 278.695312 288.636719 279.316406 C 286.09375 279.9375 283.53125 280.441406 280.941406 280.828125 C 278.351562 281.21875 275.75 281.488281 273.140625 281.640625 C 270.527344 281.796875 267.910156 281.832031 265.296875 281.75 C 262.679688 281.667969 260.070312 281.46875 257.472656 281.148438 C 254.875 280.832031 252.296875 280.398438 249.738281 279.847656 C 247.179688 279.296875 244.652344 278.632812 242.152344 277.851562 C 239.652344 277.074219 237.195312 276.183594 234.777344 275.183594 C 232.359375 274.183594 229.992188 273.074219 227.675781 271.859375 C 225.355469 270.644531 223.097656 269.328125 220.898438 267.910156 C 218.699219 266.488281 216.570312 264.976562 214.507812 263.363281 C 212.449219 261.753906 210.464844 260.050781 208.554688 258.261719 C 206.648438 256.472656 204.824219 254.597656 203.085938 252.644531 C 201.351562 250.6875 199.703125 248.660156 198.148438 246.554688 C 196.59375 244.453125 195.140625 242.28125 193.78125 240.046875 C 192.421875 237.8125 191.167969 235.519531 190.019531 233.171875 C 188.867188 230.824219 187.824219 228.429688 186.890625 225.984375 C 185.957031 223.542969 185.136719 221.0625 184.425781 218.546875 C 183.71875 216.03125 183.125 213.488281 182.644531 210.917969 C 182.164062 208.347656 181.804688 205.761719 181.558594 203.15625 C 181.3125 200.554688 181.1875 197.945312 181.179688 195.332031 C 181.167969 192.714844 181.277344 190.105469 181.503906 187.5 C 181.734375 184.898438 182.078125 182.308594 182.539062 179.734375 C 183 177.160156 183.578125 174.613281 184.269531 172.09375 C 184.960938 169.570312 185.765625 167.085938 186.683594 164.636719 C 187.601562 162.1875 188.628906 159.785156 189.761719 157.429688 C 190.898438 155.074219 192.136719 152.773438 193.480469 150.53125 C 194.820312 148.285156 196.261719 146.105469 197.804688 143.992188 C 199.34375 141.878906 200.976562 139.835938 202.699219 137.871094 C 204.425781 135.90625 206.234375 134.019531 208.132812 132.214844 C 210.027344 130.414062 212 128.699219 214.050781 127.074219 C 216.101562 125.449219 218.21875 123.921875 220.410156 122.488281 C 222.597656 121.054688 224.847656 119.722656 227.15625 118.492188 C 229.464844 117.261719 231.828125 116.136719 234.238281 115.121094 C 236.648438 114.101562 239.101562 113.195312 241.59375 112.398438 C 244.089844 111.605469 246.613281 110.921875 249.167969 110.355469 C 251.722656 109.785156 254.296875 109.335938 256.894531 109 C 259.488281 108.664062 262.09375 108.449219 264.710938 108.347656 C 267.328125 108.246094 269.941406 108.265625 272.554688 108.402344 C 275.167969 108.539062 277.769531 108.792969 280.363281 109.164062 C 282.953125 109.535156 285.523438 110.023438 288.070312 110.625 C 290.617188 111.226562 293.128906 111.945312 295.613281 112.773438 C 298.09375 113.605469 300.535156 114.546875 302.929688 115.597656 C 305.328125 116.648438 307.671875 117.804688 309.964844 119.066406 C 312.257812 120.328125 314.488281 121.691406 316.65625 123.15625 Z M 316.65625 123.101562 " fill-opacity="0.78" fill-rule="evenodd"/><path fill="#007fc6" d="M 298.0625 314.804688 C 265.070312 328.222656 220.90625 283.222656 214.960938 375 C 193.507812 360.929688 170.777344 349.375 146.765625 340.335938 C 145.777344 338.882812 144.832031 337.398438 143.9375 335.886719 C 143.042969 334.375 142.191406 332.835938 141.394531 331.269531 C 140.59375 329.707031 139.84375 328.117188 139.140625 326.503906 C 138.441406 324.894531 137.792969 323.261719 137.191406 321.609375 C 136.59375 319.957031 136.046875 318.285156 135.554688 316.597656 C 135.058594 314.914062 134.621094 313.210938 134.230469 311.496094 C 133.84375 309.785156 133.511719 308.058594 133.230469 306.324219 C 132.953125 304.589844 132.726562 302.847656 132.558594 301.097656 C 132.386719 299.347656 132.269531 297.597656 132.210938 295.839844 C 132.148438 294.082031 132.144531 292.328125 132.195312 290.570312 C 132.242188 288.8125 132.347656 287.058594 132.507812 285.308594 C 132.664062 283.558594 132.878906 281.816406 133.148438 280.078125 C 133.414062 278.34375 133.738281 276.617188 134.113281 274.898438 C 134.492188 273.183594 134.921875 271.480469 135.402344 269.789062 C 135.886719 268.101562 136.421875 266.425781 137.007812 264.769531 C 137.597656 263.113281 138.234375 261.476562 138.925781 259.859375 C 139.617188 258.246094 140.355469 256.652344 141.148438 255.082031 C 141.9375 253.511719 142.773438 251.964844 143.660156 250.449219 C 144.546875 248.929688 145.480469 247.441406 146.460938 245.980469 C 147.441406 244.523438 148.464844 243.09375 149.535156 241.699219 C 150.605469 240.304688 151.714844 238.941406 152.871094 237.617188 C 154.023438 236.289062 155.21875 235.003906 156.453125 233.75 C 157.691406 232.5 158.964844 231.289062 160.273438 230.117188 C 161.585938 228.945312 162.929688 227.8125 164.3125 226.726562 C 165.695312 225.636719 167.109375 224.59375 168.554688 223.59375 C 170.003906 222.59375 171.480469 221.640625 172.988281 220.734375 C 174.492188 219.828125 176.027344 218.96875 177.589844 218.15625 C 179.148438 217.34375 180.734375 216.582031 182.339844 215.871094 C 183.949219 215.160156 185.578125 214.496094 187.230469 213.886719 C 188.878906 213.277344 190.546875 212.71875 192.230469 212.210938 C 193.914062 211.703125 195.613281 211.25 197.328125 210.851562 C 199.039062 210.449219 200.765625 210.101562 202.5 209.808594 C 204.234375 209.515625 205.976562 209.277344 207.726562 209.09375 C 209.476562 208.910156 211.230469 208.78125 212.988281 208.707031 C 214.746094 208.632812 216.503906 208.613281 218.261719 208.648438 C 220.019531 208.683594 221.777344 208.777344 223.53125 208.921875 C 225.285156 209.066406 227.03125 209.265625 228.769531 209.519531 C 230.511719 209.773438 232.242188 210.082031 233.964844 210.445312 C 235.6875 210.808594 237.394531 211.222656 239.089844 211.691406 C 240.785156 212.164062 242.464844 212.683594 244.128906 213.257812 C 245.789062 213.832031 247.433594 214.457031 249.058594 215.132812 C 250.679688 215.8125 252.28125 216.539062 253.859375 217.316406 C 255.4375 218.089844 256.992188 218.917969 258.515625 219.789062 C 260.042969 220.664062 261.542969 221.585938 263.011719 222.550781 C 264.480469 223.519531 265.917969 224.53125 267.320312 225.589844 C 268.726562 226.644531 270.097656 227.746094 271.433594 228.886719 C 272.773438 230.03125 274.070312 231.214844 275.332031 232.4375 C 276.597656 233.664062 277.820312 234.925781 279.003906 236.226562 C 280.1875 237.523438 281.328125 238.859375 282.429688 240.234375 C 283.527344 241.605469 284.582031 243.007812 285.59375 244.445312 C 286.605469 245.882812 287.574219 247.351562 288.492188 248.851562 C 289.414062 250.347656 290.285156 251.875 291.109375 253.425781 C 291.933594 254.976562 292.710938 256.554688 293.4375 258.15625 C 294.160156 259.757812 294.835938 261.378906 295.460938 263.019531 C 296.085938 264.664062 296.65625 266.324219 297.175781 268.003906 C 297.699219 269.683594 298.164062 271.375 298.578125 273.085938 C 298.992188 274.792969 299.355469 276.511719 299.660156 278.242188 C 299.96875 279.972656 300.21875 281.710938 300.417969 283.457031 C 300.613281 285.203125 300.757812 286.953125 300.847656 288.707031 C 300.933594 290.464844 300.96875 292.21875 300.945312 293.976562 C 300.925781 295.734375 300.847656 297.488281 300.714844 299.242188 C 300.582031 300.996094 300.398438 302.742188 300.15625 304.480469 C 299.914062 306.222656 299.621094 307.953125 299.269531 309.675781 C 298.921875 311.398438 298.519531 313.109375 298.0625 314.804688 Z M 298.0625 314.804688 " fill-opacity="0.78" fill-rule="evenodd"/><path fill="#01a6e6" d="M 249.625 315.277344 C 232.195312 316.007812 218.132812 326.03125 214.960938 375 C 193.628906 361.011719 171.03125 349.503906 147.171875 340.476562 C 147.207031 338.992188 147.300781 337.511719 147.460938 336.03125 C 147.617188 334.554688 147.832031 333.085938 148.109375 331.625 C 148.386719 330.167969 148.722656 328.71875 149.117188 327.285156 C 149.511719 325.855469 149.964844 324.441406 150.472656 323.042969 C 150.984375 321.648438 151.550781 320.273438 152.171875 318.925781 C 152.796875 317.574219 153.472656 316.253906 154.203125 314.960938 C 154.933594 313.664062 155.714844 312.402344 156.550781 311.171875 C 157.382812 309.941406 158.265625 308.746094 159.199219 307.585938 C 160.128906 306.429688 161.105469 305.308594 162.128906 304.230469 C 163.152344 303.152344 164.21875 302.117188 165.324219 301.125 C 166.433594 300.132812 167.578125 299.1875 168.765625 298.289062 C 169.949219 297.390625 171.167969 296.539062 172.421875 295.742188 C 173.675781 294.941406 174.960938 294.195312 176.277344 293.5 C 177.59375 292.804688 178.933594 292.167969 180.300781 291.582031 C 181.667969 290.996094 183.058594 290.46875 184.46875 289.996094 C 185.878906 289.523438 187.308594 289.109375 188.753906 288.753906 C 190.195312 288.398438 191.652344 288.105469 193.121094 287.867188 C 194.589844 287.628906 196.066406 287.453125 197.550781 287.339844 C 199.035156 287.222656 200.519531 287.167969 202.007812 287.171875 C 203.496094 287.175781 204.980469 287.242188 206.460938 287.367188 C 207.945312 287.492188 209.417969 287.679688 210.886719 287.925781 C 212.355469 288.171875 213.808594 288.476562 215.25 288.84375 C 216.691406 289.207031 218.117188 289.628906 219.523438 290.113281 C 220.933594 290.59375 222.320312 291.128906 223.683594 291.726562 C 225.046875 292.320312 226.382812 292.96875 227.695312 293.671875 C 229.003906 294.375 230.285156 295.128906 231.53125 295.9375 C 232.78125 296.746094 233.996094 297.601562 235.175781 298.507812 C 236.355469 299.414062 237.492188 300.367188 238.59375 301.367188 C 239.695312 302.367188 240.753906 303.410156 241.769531 304.496094 C 242.785156 305.582031 243.753906 306.707031 244.679688 307.871094 C 245.601562 309.035156 246.476562 310.234375 247.304688 311.472656 C 248.128906 312.707031 248.902344 313.976562 249.625 315.277344 Z M 249.625 315.277344 " fill-opacity="0.78" fill-rule="evenodd"/><path fill="#2063b2" d="M 329.34375 231.15625 C 327.273438 231.757812 325.355469 232.675781 323.59375 233.910156 C 316.8125 239.199219 321.449219 244.914062 322.050781 249.039062 C 322.339844 250.996094 320.5625 254.140625 314.695312 257.964844 C 321.476562 262.964844 316.917969 266.789062 314.1875 270.46875 C 301.5 279.605469 319.152344 299.40625 298.21875 314.753906 C 277.089844 323.445312 251.402344 308.109375 234.050781 319.882812 C 233.773438 318.300781 233.550781 316.710938 233.371094 315.113281 C 233.195312 313.515625 233.070312 311.914062 232.992188 310.308594 C 232.914062 308.703125 232.890625 307.097656 232.910156 305.488281 C 232.933594 303.882812 233.007812 302.277344 233.128906 300.675781 C 233.253906 299.074219 233.425781 297.476562 233.644531 295.882812 C 233.867188 294.292969 234.140625 292.707031 234.457031 291.132812 C 234.777344 289.558594 235.148438 287.996094 235.566406 286.441406 C 235.980469 284.890625 236.445312 283.351562 236.960938 281.832031 C 237.472656 280.308594 238.03125 278.800781 238.636719 277.3125 C 239.242188 275.824219 239.894531 274.355469 240.59375 272.90625 C 241.289062 271.457031 242.03125 270.03125 242.816406 268.628906 C 243.601562 267.226562 244.433594 265.851562 245.304688 264.5 C 246.175781 263.148438 247.085938 261.828125 248.039062 260.53125 C 248.992188 259.238281 249.988281 257.972656 251.019531 256.742188 C 252.050781 255.507812 253.121094 254.308594 254.226562 253.140625 C 255.332031 251.976562 256.472656 250.84375 257.652344 249.746094 C 258.828125 248.652344 260.039062 247.59375 261.28125 246.574219 C 262.523438 245.550781 263.796875 244.570312 265.097656 243.628906 C 266.402344 242.6875 267.734375 241.785156 269.09375 240.925781 C 270.453125 240.066406 271.835938 239.25 273.246094 238.476562 C 274.65625 237.699219 276.089844 236.972656 277.546875 236.285156 C 279 235.601562 280.476562 234.960938 281.972656 234.367188 C 283.464844 233.773438 284.980469 233.226562 286.507812 232.726562 C 288.035156 232.226562 289.578125 231.777344 291.136719 231.371094 C 292.695312 230.96875 294.261719 230.613281 295.839844 230.304688 C 297.421875 229.996094 299.007812 229.738281 300.601562 229.53125 C 302.199219 229.320312 303.800781 229.164062 305.402344 229.050781 C 307.007812 228.941406 308.617188 228.882812 310.226562 228.871094 C 311.832031 228.863281 313.441406 228.902344 315.046875 228.992188 C 316.65625 229.082031 318.257812 229.21875 319.855469 229.410156 C 321.453125 229.597656 323.042969 229.835938 324.625 230.125 C 326.207031 230.410156 327.78125 230.746094 329.34375 231.132812 Z M 329.34375 231.15625 " fill-opacity="0.78" fill-rule="evenodd"/><path fill="#12bcbc" d="M 83.980469 232.136719 C 84.96875 232.136719 85.957031 232.089844 86.941406 231.992188 C 87.921875 231.894531 88.898438 231.753906 89.871094 231.558594 C 90.839844 231.367188 91.796875 231.128906 92.742188 230.84375 C 93.6875 230.554688 94.617188 230.222656 95.53125 229.847656 C 96.445312 229.46875 97.335938 229.046875 98.207031 228.582031 C 99.078125 228.117188 99.925781 227.613281 100.75 227.0625 C 101.570312 226.515625 102.363281 225.929688 103.128906 225.300781 C 103.890625 224.675781 104.625 224.015625 105.324219 223.316406 C 106.023438 222.617188 106.683594 221.886719 107.3125 221.125 C 107.9375 220.363281 108.527344 219.570312 109.078125 218.75 C 109.625 217.929688 110.132812 217.082031 110.597656 216.210938 C 111.066406 215.34375 111.488281 214.449219 111.867188 213.539062 C 112.246094 212.628906 112.578125 211.699219 112.863281 210.753906 C 113.152344 209.808594 113.390625 208.851562 113.585938 207.886719 C 113.777344 206.917969 113.921875 205.941406 114.019531 204.960938 C 114.117188 203.976562 114.164062 202.992188 114.164062 202.003906 C 114.164062 201.015625 114.117188 200.03125 114.019531 199.050781 C 113.921875 198.066406 113.777344 197.09375 113.585938 196.125 C 113.394531 195.15625 113.152344 194.199219 112.867188 193.253906 C 112.582031 192.308594 112.246094 191.382812 111.871094 190.46875 C 111.492188 189.558594 111.070312 188.667969 110.605469 187.796875 C 110.136719 186.925781 109.628906 186.078125 109.082031 185.257812 C 108.53125 184.4375 107.945312 183.644531 107.316406 182.882812 C 106.691406 182.121094 106.027344 181.390625 105.328125 180.691406 C 104.628906 179.992188 103.898438 179.332031 103.132812 178.703125 C 102.371094 178.078125 101.578125 177.492188 100.757812 176.941406 C 99.933594 176.394531 99.085938 175.886719 98.214844 175.421875 C 97.34375 174.957031 96.453125 174.535156 95.539062 174.15625 C 94.625 173.78125 93.695312 173.449219 92.75 173.160156 C 91.804688 172.875 90.847656 172.636719 89.878906 172.441406 C 88.910156 172.25 87.933594 172.105469 86.949219 172.007812 C 85.964844 171.914062 84.980469 171.863281 83.992188 171.863281 C 83.003906 171.863281 82.015625 171.914062 81.03125 172.007812 C 80.050781 172.105469 79.074219 172.25 78.105469 172.445312 C 77.132812 172.636719 76.175781 172.875 75.230469 173.164062 C 74.285156 173.449219 73.355469 173.78125 72.441406 174.160156 C 71.53125 174.539062 70.636719 174.960938 69.765625 175.425781 C 68.894531 175.890625 68.046875 176.398438 67.226562 176.945312 C 66.40625 177.496094 65.613281 178.082031 64.847656 178.710938 C 64.085938 179.335938 63.355469 180 62.65625 180.695312 C 61.957031 181.394531 61.292969 182.125 60.667969 182.890625 C 60.039062 183.652344 59.453125 184.445312 58.902344 185.265625 C 58.355469 186.085938 57.847656 186.933594 57.382812 187.804688 C 56.917969 188.675781 56.496094 189.566406 56.117188 190.476562 C 55.738281 191.390625 55.40625 192.320312 55.121094 193.261719 C 54.832031 194.207031 54.59375 195.164062 54.402344 196.132812 C 54.210938 197.101562 54.066406 198.078125 53.96875 199.058594 C 53.871094 200.042969 53.824219 201.027344 53.824219 202.011719 C 53.828125 203 53.878906 203.984375 53.976562 204.964844 C 54.074219 205.945312 54.222656 206.917969 54.414062 207.886719 C 54.609375 208.851562 54.851562 209.808594 55.136719 210.75 C 55.425781 211.695312 55.757812 212.621094 56.136719 213.53125 C 56.515625 214.441406 56.9375 215.332031 57.40625 216.199219 C 57.871094 217.070312 58.378906 217.914062 58.925781 218.734375 C 59.476562 219.554688 60.0625 220.34375 60.691406 221.105469 C 61.316406 221.867188 61.980469 222.597656 62.675781 223.292969 C 63.375 223.992188 64.105469 224.652344 64.867188 225.277344 C 65.628906 225.90625 66.421875 226.492188 67.242188 227.039062 C 68.0625 227.589844 68.910156 228.09375 69.777344 228.5625 C 70.648438 229.027344 71.539062 229.449219 72.453125 229.828125 C 73.363281 230.203125 74.289062 230.539062 75.234375 230.824219 C 76.179688 231.113281 77.136719 231.351562 78.101562 231.546875 C 79.070312 231.742188 80.046875 231.886719 81.027344 231.984375 C 82.011719 232.085938 82.996094 232.132812 83.980469 232.136719 Z M 83.980469 232.136719 " fill-opacity="0.78" fill-rule="evenodd"/><path fill="#00b9f1" d="M 147.171875 274.085938 C 148.074219 274.085938 148.972656 274.046875 149.871094 273.960938 C 150.769531 273.875 151.660156 273.746094 152.542969 273.570312 C 153.429688 273.398438 154.304688 273.179688 155.167969 272.921875 C 156.03125 272.664062 156.878906 272.363281 157.714844 272.019531 C 158.546875 271.675781 159.363281 271.292969 160.160156 270.871094 C 160.957031 270.449219 161.730469 269.988281 162.480469 269.492188 C 163.230469 268.992188 163.957031 268.457031 164.65625 267.886719 C 165.351562 267.316406 166.023438 266.714844 166.660156 266.082031 C 167.300781 265.445312 167.90625 264.78125 168.480469 264.085938 C 169.054688 263.390625 169.59375 262.667969 170.09375 261.921875 C 170.597656 261.171875 171.0625 260.402344 171.488281 259.609375 C 171.917969 258.816406 172.304688 258.003906 172.648438 257.171875 C 172.996094 256.339844 173.300781 255.492188 173.566406 254.632812 C 173.828125 253.769531 174.050781 252.898438 174.226562 252.015625 C 174.40625 251.132812 174.539062 250.242188 174.628906 249.347656 C 174.71875 248.449219 174.765625 247.550781 174.765625 246.648438 C 174.769531 245.75 174.726562 244.851562 174.640625 243.953125 C 174.554688 243.058594 174.421875 242.167969 174.25 241.285156 C 174.074219 240.398438 173.855469 239.527344 173.597656 238.664062 C 173.335938 237.800781 173.035156 236.953125 172.691406 236.121094 C 172.347656 235.289062 171.960938 234.476562 171.539062 233.679688 C 171.113281 232.882812 170.652344 232.113281 170.152344 231.363281 C 169.652344 230.613281 169.117188 229.890625 168.546875 229.191406 C 167.976562 228.496094 167.371094 227.828125 166.734375 227.191406 C 166.097656 226.550781 165.433594 225.945312 164.734375 225.375 C 164.039062 224.800781 163.316406 224.265625 162.566406 223.761719 C 161.820312 223.261719 161.046875 222.796875 160.25 222.371094 C 159.457031 221.949219 158.644531 221.5625 157.808594 221.214844 C 156.976562 220.871094 156.128906 220.566406 155.265625 220.304688 C 154.40625 220.042969 153.53125 219.820312 152.648438 219.644531 C 151.761719 219.46875 150.871094 219.335938 149.972656 219.246094 C 149.078125 219.15625 148.175781 219.113281 147.277344 219.109375 C 146.375 219.109375 145.472656 219.152344 144.578125 219.242188 C 143.679688 219.328125 142.789062 219.460938 141.902344 219.636719 C 141.019531 219.808594 140.144531 220.027344 139.28125 220.289062 C 138.417969 220.550781 137.570312 220.851562 136.738281 221.195312 C 135.902344 221.539062 135.089844 221.925781 134.292969 222.347656 C 133.496094 222.773438 132.726562 223.234375 131.976562 223.734375 C 131.226562 224.234375 130.5 224.769531 129.804688 225.339844 C 129.105469 225.914062 128.4375 226.515625 127.800781 227.152344 C 127.164062 227.789062 126.558594 228.457031 125.984375 229.152344 C 125.414062 229.847656 124.875 230.570312 124.375 231.320312 C 123.875 232.066406 123.410156 232.839844 122.984375 233.632812 C 122.558594 234.429688 122.175781 235.242188 121.828125 236.074219 C 121.484375 236.90625 121.179688 237.753906 120.917969 238.613281 C 120.65625 239.476562 120.4375 240.347656 120.261719 241.230469 C 120.085938 242.117188 119.953125 243.003906 119.863281 243.902344 C 119.777344 244.796875 119.730469 245.695312 119.730469 246.597656 C 119.734375 247.496094 119.777344 248.390625 119.867188 249.285156 C 119.957031 250.179688 120.089844 251.066406 120.265625 251.945312 C 120.445312 252.828125 120.664062 253.699219 120.925781 254.558594 C 121.183594 255.417969 121.488281 256.261719 121.832031 257.089844 C 122.175781 257.921875 122.5625 258.730469 122.984375 259.523438 C 123.410156 260.316406 123.871094 261.085938 124.367188 261.832031 C 124.867188 262.578125 125.402344 263.300781 125.972656 263.996094 C 126.542969 264.691406 127.144531 265.355469 127.777344 265.992188 C 128.414062 266.628906 129.078125 267.230469 129.773438 267.800781 C 130.464844 268.371094 131.1875 268.910156 131.933594 269.410156 C 132.679688 269.910156 133.449219 270.371094 134.242188 270.796875 C 135.03125 271.222656 135.84375 271.609375 136.671875 271.957031 C 137.503906 272.300781 138.347656 272.605469 139.207031 272.871094 C 140.066406 273.132812 140.9375 273.355469 141.816406 273.535156 C 142.699219 273.714844 143.585938 273.847656 144.480469 273.941406 C 145.375 274.03125 146.273438 274.082031 147.171875 274.085938 Z M 147.171875 274.085938 " fill-opacity="0.78" fill-rule="evenodd"/><path fill="#8dc63f" d="M 79.644531 158.800781 C 80.335938 158.800781 81.027344 158.765625 81.714844 158.699219 C 82.40625 158.628906 83.089844 158.527344 83.769531 158.394531 C 84.449219 158.257812 85.117188 158.089844 85.78125 157.890625 C 86.445312 157.6875 87.09375 157.457031 87.734375 157.191406 C 88.375 156.925781 89 156.632812 89.609375 156.304688 C 90.222656 155.980469 90.816406 155.625 91.390625 155.238281 C 91.964844 154.855469 92.523438 154.445312 93.058594 154.003906 C 93.59375 153.566406 94.105469 153.101562 94.59375 152.613281 C 95.085938 152.125 95.546875 151.613281 95.988281 151.078125 C 96.425781 150.542969 96.839844 149.988281 97.222656 149.410156 C 97.609375 148.835938 97.964844 148.242188 98.289062 147.632812 C 98.617188 147.023438 98.914062 146.398438 99.175781 145.761719 C 99.441406 145.121094 99.675781 144.46875 99.875 143.808594 C 100.078125 143.148438 100.246094 142.476562 100.378906 141.796875 C 100.515625 141.121094 100.617188 140.4375 100.683594 139.746094 C 100.75 139.058594 100.785156 138.371094 100.785156 137.675781 C 100.785156 136.984375 100.75 136.296875 100.683594 135.605469 C 100.613281 134.917969 100.511719 134.234375 100.378906 133.558594 C 100.242188 132.878906 100.074219 132.207031 99.875 131.546875 C 99.671875 130.886719 99.4375 130.234375 99.175781 129.59375 C 98.910156 128.957031 98.613281 128.332031 98.285156 127.722656 C 97.960938 127.113281 97.605469 126.519531 97.21875 125.945312 C 96.835938 125.371094 96.421875 124.816406 95.984375 124.28125 C 95.542969 123.746094 95.078125 123.234375 94.589844 122.746094 C 94.097656 122.257812 93.585938 121.792969 93.050781 121.351562 C 92.515625 120.914062 91.960938 120.503906 91.382812 120.121094 C 90.808594 119.734375 90.214844 119.378906 89.601562 119.054688 C 88.992188 118.726562 88.367188 118.433594 87.726562 118.167969 C 87.085938 117.90625 86.4375 117.671875 85.773438 117.472656 C 85.109375 117.269531 84.441406 117.101562 83.761719 116.96875 C 83.082031 116.832031 82.398438 116.734375 81.707031 116.664062 C 81.019531 116.597656 80.328125 116.5625 79.636719 116.5625 C 78.941406 116.566406 78.25 116.597656 77.5625 116.667969 C 76.875 116.734375 76.191406 116.835938 75.511719 116.972656 C 74.832031 117.105469 74.160156 117.273438 73.496094 117.476562 C 72.835938 117.675781 72.183594 117.910156 71.542969 118.175781 C 70.90625 118.441406 70.28125 118.734375 69.667969 119.0625 C 69.058594 119.390625 68.464844 119.746094 67.890625 120.128906 C 67.3125 120.511719 66.757812 120.925781 66.222656 121.363281 C 65.6875 121.804688 65.175781 122.269531 64.6875 122.757812 C 64.199219 123.246094 63.734375 123.757812 63.292969 124.292969 C 62.855469 124.828125 62.445312 125.382812 62.058594 125.960938 C 61.675781 126.535156 61.320312 127.128906 60.992188 127.738281 C 60.667969 128.347656 60.371094 128.972656 60.105469 129.613281 C 59.84375 130.25 59.609375 130.902344 59.410156 131.5625 C 59.207031 132.226562 59.039062 132.894531 58.90625 133.574219 C 58.773438 134.253906 58.671875 134.9375 58.601562 135.625 C 58.535156 136.3125 58.503906 137.003906 58.503906 137.695312 C 58.503906 138.386719 58.539062 139.074219 58.609375 139.761719 C 58.675781 140.449219 58.777344 141.132812 58.914062 141.8125 C 59.050781 142.488281 59.21875 143.15625 59.421875 143.820312 C 59.625 144.480469 59.855469 145.128906 60.121094 145.769531 C 60.386719 146.40625 60.683594 147.03125 61.011719 147.640625 C 61.335938 148.25 61.691406 148.839844 62.078125 149.414062 C 62.460938 149.988281 62.875 150.542969 63.3125 151.078125 C 63.753906 151.613281 64.21875 152.121094 64.707031 152.609375 C 65.195312 153.101562 65.707031 153.5625 66.242188 154 C 66.777344 154.441406 67.332031 154.851562 67.910156 155.234375 C 68.484375 155.621094 69.078125 155.972656 69.6875 156.300781 C 70.296875 156.625 70.921875 156.921875 71.558594 157.1875 C 72.199219 157.449219 72.851562 157.683594 73.511719 157.886719 C 74.175781 158.085938 74.84375 158.253906 75.523438 158.390625 C 76.203125 158.523438 76.886719 158.628906 77.574219 158.695312 C 78.261719 158.765625 78.953125 158.796875 79.644531 158.800781 Z M 79.644531 158.800781 " fill-opacity="0.78" fill-rule="evenodd"/><g clip-path="url(#44c54e4eb8)"><path fill="#ffd900" d="M 69.097656 85.214844 C 69.097656 85.8125 69.070312 86.410156 69.011719 87.007812 C 68.953125 87.601562 68.863281 88.195312 68.746094 88.78125 C 68.628906 89.367188 68.484375 89.949219 68.3125 90.523438 C 68.136719 91.09375 67.933594 91.660156 67.707031 92.210938 C 67.476562 92.765625 67.21875 93.304688 66.9375 93.832031 C 66.65625 94.363281 66.347656 94.875 66.015625 95.371094 C 65.679688 95.871094 65.324219 96.351562 64.945312 96.8125 C 64.5625 97.277344 64.160156 97.71875 63.738281 98.144531 C 63.3125 98.566406 62.871094 98.96875 62.40625 99.347656 C 61.941406 99.730469 61.460938 100.085938 60.964844 100.417969 C 60.464844 100.75 59.953125 101.058594 59.421875 101.339844 C 58.894531 101.621094 58.351562 101.878906 57.796875 102.109375 C 57.246094 102.335938 56.679688 102.539062 56.105469 102.710938 C 55.535156 102.886719 54.953125 103.03125 54.363281 103.148438 C 53.777344 103.265625 53.183594 103.351562 52.585938 103.410156 C 51.992188 103.46875 51.394531 103.5 50.792969 103.5 C 50.195312 103.5 49.59375 103.46875 49 103.410156 C 48.402344 103.351562 47.808594 103.265625 47.222656 103.148438 C 46.632812 103.03125 46.054688 102.886719 45.480469 102.710938 C 44.90625 102.539062 44.339844 102.335938 43.789062 102.109375 C 43.234375 101.878906 42.691406 101.621094 42.164062 101.339844 C 41.636719 101.058594 41.121094 100.75 40.621094 100.417969 C 40.125 100.085938 39.644531 99.730469 39.179688 99.347656 C 38.714844 98.96875 38.273438 98.566406 37.847656 98.144531 C 37.425781 97.71875 37.023438 97.277344 36.640625 96.8125 C 36.261719 96.351562 35.90625 95.871094 35.574219 95.371094 C 35.238281 94.875 34.929688 94.363281 34.648438 93.832031 C 34.367188 93.304688 34.109375 92.765625 33.878906 92.210938 C 33.652344 91.660156 33.449219 91.09375 33.277344 90.523438 C 33.101562 89.949219 32.957031 89.367188 32.839844 88.78125 C 32.722656 88.195312 32.632812 87.601562 32.574219 87.007812 C 32.515625 86.410156 32.488281 85.8125 32.488281 85.214844 C 32.488281 84.617188 32.515625 84.019531 32.574219 83.421875 C 32.632812 82.824219 32.722656 82.234375 32.839844 81.648438 C 32.957031 81.058594 33.101562 80.480469 33.277344 79.90625 C 33.449219 79.332031 33.652344 78.769531 33.878906 78.214844 C 34.109375 77.664062 34.367188 77.121094 34.648438 76.59375 C 34.929688 76.066406 35.238281 75.554688 35.574219 75.054688 C 35.90625 74.558594 36.261719 74.078125 36.640625 73.613281 C 37.023438 73.152344 37.425781 72.707031 37.847656 72.285156 C 38.273438 71.859375 38.714844 71.460938 39.179688 71.078125 C 39.644531 70.699219 40.125 70.34375 40.621094 70.011719 C 41.121094 69.679688 41.636719 69.371094 42.164062 69.089844 C 42.691406 68.804688 43.234375 68.550781 43.789062 68.320312 C 44.339844 68.089844 44.90625 67.890625 45.480469 67.714844 C 46.054688 67.542969 46.632812 67.398438 47.222656 67.28125 C 47.808594 67.164062 48.402344 67.074219 49 67.015625 C 49.59375 66.957031 50.195312 66.929688 50.792969 66.929688 C 51.394531 66.929688 51.992188 66.957031 52.585938 67.015625 C 53.183594 67.074219 53.777344 67.164062 54.363281 67.28125 C 54.953125 67.398438 55.535156 67.542969 56.105469 67.714844 C 56.679688 67.890625 57.246094 68.089844 57.796875 68.320312 C 58.351562 68.550781 58.894531 68.804688 59.421875 69.089844 C 59.953125 69.371094 60.464844 69.679688 60.964844 70.011719 C 61.460938 70.34375 61.941406 70.699219 62.40625 71.078125 C 62.871094 71.460938 63.3125 71.859375 63.738281 72.285156 C 64.160156 72.707031 64.5625 73.152344 64.945312 73.613281 C 65.324219 74.078125 65.679688 74.558594 66.015625 75.054688 C 66.347656 75.554688 66.65625 76.066406 66.9375 76.59375 C 67.21875 77.121094 67.476562 77.664062 67.707031 78.214844 C 67.933594 78.769531 68.136719 79.332031 68.3125 79.90625 C 68.484375 80.480469 68.628906 81.058594 68.746094 81.648438 C 68.863281 82.234375 68.953125 82.824219 69.011719 83.421875 C 69.070312 84.019531 69.097656 84.617188 69.097656 85.214844 Z M 69.097656 85.214844 " fill-opacity="0.78" fill-rule="nonzero"/></g><path fill="#009444" d="M 89.46875 51.710938 C 90.03125 51.710938 90.589844 51.683594 91.144531 51.628906 C 91.703125 51.574219 92.253906 51.492188 92.804688 51.386719 C 93.355469 51.277344 93.898438 51.140625 94.433594 50.980469 C 94.96875 50.816406 95.496094 50.628906 96.011719 50.414062 C 96.53125 50.203125 97.035156 49.964844 97.527344 49.699219 C 98.023438 49.4375 98.503906 49.148438 98.96875 48.839844 C 99.433594 48.53125 99.882812 48.195312 100.316406 47.84375 C 100.75 47.488281 101.164062 47.113281 101.558594 46.71875 C 101.957031 46.324219 102.332031 45.910156 102.6875 45.476562 C 103.042969 45.046875 103.375 44.597656 103.6875 44.132812 C 104 43.667969 104.285156 43.1875 104.550781 42.695312 C 104.816406 42.203125 105.054688 41.699219 105.269531 41.179688 C 105.484375 40.664062 105.671875 40.140625 105.835938 39.605469 C 105.996094 39.070312 106.132812 38.527344 106.242188 37.980469 C 106.351562 37.429688 106.433594 36.878906 106.492188 36.320312 C 106.546875 35.765625 106.574219 35.207031 106.574219 34.648438 C 106.574219 34.089844 106.546875 33.53125 106.492188 32.972656 C 106.4375 32.417969 106.355469 31.863281 106.246094 31.316406 C 106.136719 30.769531 106.003906 30.226562 105.839844 29.691406 C 105.679688 29.15625 105.488281 28.628906 105.277344 28.113281 C 105.0625 27.597656 104.824219 27.089844 104.558594 26.597656 C 104.296875 26.105469 104.007812 25.625 103.699219 25.160156 C 103.386719 24.695312 103.054688 24.246094 102.699219 23.8125 C 102.34375 23.382812 101.96875 22.96875 101.574219 22.574219 C 101.175781 22.175781 100.761719 21.800781 100.332031 21.445312 C 99.898438 21.089844 99.449219 20.757812 98.984375 20.449219 C 98.519531 20.136719 98.039062 19.851562 97.542969 19.585938 C 97.050781 19.320312 96.546875 19.082031 96.027344 18.867188 C 95.511719 18.65625 94.984375 18.464844 94.449219 18.304688 C 93.914062 18.140625 93.371094 18.003906 92.820312 17.898438 C 92.273438 17.789062 91.71875 17.707031 91.164062 17.648438 C 90.605469 17.59375 90.046875 17.566406 89.488281 17.566406 C 88.925781 17.566406 88.367188 17.59375 87.8125 17.648438 C 87.253906 17.703125 86.703125 17.785156 86.152344 17.894531 C 85.601562 18.003906 85.0625 18.140625 84.523438 18.300781 C 83.988281 18.464844 83.460938 18.652344 82.945312 18.867188 C 82.429688 19.078125 81.921875 19.320312 81.429688 19.582031 C 80.933594 19.84375 80.457031 20.132812 79.988281 20.441406 C 79.523438 20.753906 79.074219 21.085938 78.640625 21.441406 C 78.210938 21.796875 77.796875 22.171875 77.398438 22.566406 C 77.003906 22.960938 76.628906 23.375 76.273438 23.808594 C 75.917969 24.238281 75.585938 24.6875 75.273438 25.152344 C 74.960938 25.617188 74.675781 26.097656 74.410156 26.589844 C 74.148438 27.082031 73.90625 27.589844 73.695312 28.105469 C 73.480469 28.621094 73.289062 29.148438 73.128906 29.683594 C 72.964844 30.21875 72.828125 30.757812 72.71875 31.308594 C 72.613281 31.855469 72.527344 32.410156 72.472656 32.964844 C 72.417969 33.523438 72.390625 34.078125 72.390625 34.640625 C 72.394531 35.199219 72.421875 35.753906 72.476562 36.3125 C 72.53125 36.867188 72.613281 37.417969 72.722656 37.964844 C 72.835938 38.515625 72.96875 39.054688 73.132812 39.589844 C 73.296875 40.125 73.484375 40.648438 73.699219 41.164062 C 73.914062 41.679688 74.152344 42.183594 74.414062 42.679688 C 74.679688 43.171875 74.96875 43.648438 75.277344 44.113281 C 75.589844 44.578125 75.921875 45.027344 76.277344 45.457031 C 76.628906 45.890625 77.003906 46.304688 77.402344 46.699219 C 77.796875 47.09375 78.210938 47.46875 78.640625 47.824219 C 79.074219 48.175781 79.523438 48.511719 79.988281 48.820312 C 80.453125 49.132812 80.929688 49.417969 81.421875 49.683594 C 81.917969 49.945312 82.421875 50.1875 82.9375 50.402344 C 83.453125 50.613281 83.980469 50.804688 84.515625 50.964844 C 85.050781 51.128906 85.589844 51.265625 86.140625 51.375 C 86.6875 51.484375 87.238281 51.570312 87.796875 51.625 C 88.351562 51.679688 88.910156 51.710938 89.46875 51.710938 Z M 89.46875 51.710938 " fill-opacity="0.78" fill-rule="evenodd"/><path fill="#56ba48" d="M 95.269531 94.257812 C 96.011719 94.257812 96.746094 94.1875 97.472656 94.042969 C 98.199219 93.898438 98.90625 93.683594 99.589844 93.402344 C 100.277344 93.117188 100.925781 92.769531 101.542969 92.359375 C 102.160156 91.945312 102.730469 91.480469 103.253906 90.957031 C 103.777344 90.433594 104.246094 89.863281 104.65625 89.246094 C 105.070312 88.632812 105.417969 87.980469 105.703125 87.296875 C 105.984375 86.613281 106.199219 85.910156 106.34375 85.183594 C 106.488281 84.457031 106.5625 83.722656 106.5625 82.980469 C 106.5625 82.242188 106.488281 81.507812 106.34375 80.78125 C 106.199219 80.054688 105.984375 79.351562 105.703125 78.667969 C 105.417969 77.984375 105.070312 77.332031 104.65625 76.71875 C 104.246094 76.101562 103.777344 75.53125 103.253906 75.007812 C 102.730469 74.484375 102.160156 74.015625 101.542969 73.605469 C 100.925781 73.195312 100.277344 72.847656 99.589844 72.5625 C 98.90625 72.28125 98.199219 72.066406 97.472656 71.921875 C 96.746094 71.777344 96.011719 71.707031 95.269531 71.707031 C 94.53125 71.707031 93.796875 71.777344 93.070312 71.921875 C 92.34375 72.066406 91.636719 72.28125 90.949219 72.5625 C 90.265625 72.847656 89.617188 73.195312 89 73.605469 C 88.382812 74.015625 87.8125 74.484375 87.289062 75.007812 C 86.765625 75.53125 86.296875 76.101562 85.882812 76.71875 C 85.472656 77.332031 85.125 77.984375 84.839844 78.667969 C 84.558594 79.351562 84.34375 80.054688 84.199219 80.78125 C 84.054688 81.507812 83.980469 82.242188 83.980469 82.980469 C 83.984375 83.722656 84.058594 84.453125 84.203125 85.179688 C 84.347656 85.90625 84.5625 86.609375 84.847656 87.292969 C 85.132812 87.976562 85.480469 88.625 85.890625 89.242188 C 86.304688 89.855469 86.773438 90.425781 87.296875 90.949219 C 87.820312 91.472656 88.390625 91.9375 89.003906 92.351562 C 89.621094 92.761719 90.269531 93.109375 90.957031 93.394531 C 91.640625 93.675781 92.34375 93.890625 93.070312 94.039062 C 93.796875 94.183594 94.53125 94.257812 95.269531 94.257812 Z M 95.269531 94.257812 " fill-opacity="0.78" fill-rule="evenodd"/><path fill="#fbad17" d="M 118.816406 22.554688 C 119.558594 22.554688 120.292969 22.480469 121.019531 22.335938 C 121.746094 22.191406 122.453125 21.976562 123.136719 21.695312 C 123.820312 21.410156 124.472656 21.0625 125.089844 20.652344 C 125.707031 20.242188 126.277344 19.773438 126.800781 19.25 C 127.324219 18.726562 127.792969 18.15625 128.203125 17.542969 C 128.617188 16.925781 128.964844 16.277344 129.246094 15.59375 C 129.53125 14.90625 129.746094 14.203125 129.890625 13.476562 C 130.035156 12.75 130.105469 12.015625 130.105469 11.277344 C 130.105469 10.535156 130.035156 9.804688 129.890625 9.078125 C 129.746094 8.351562 129.53125 7.644531 129.246094 6.960938 C 128.964844 6.277344 128.617188 5.628906 128.203125 5.011719 C 127.792969 4.394531 127.324219 3.828125 126.800781 3.304688 C 126.277344 2.777344 125.707031 2.3125 125.089844 1.902344 C 124.472656 1.488281 123.820312 1.140625 123.136719 0.859375 C 122.453125 0.574219 121.746094 0.359375 121.019531 0.214844 C 120.292969 0.0703125 119.558594 0 118.816406 0 C 118.074219 0 117.339844 0.0703125 116.613281 0.214844 C 115.886719 0.359375 115.179688 0.574219 114.496094 0.859375 C 113.8125 1.140625 113.160156 1.488281 112.546875 1.902344 C 111.929688 2.3125 111.359375 2.777344 110.835938 3.304688 C 110.308594 3.828125 109.84375 4.394531 109.429688 5.011719 C 109.019531 5.628906 108.671875 6.277344 108.386719 6.960938 C 108.101562 7.644531 107.890625 8.351562 107.746094 9.078125 C 107.601562 9.804688 107.527344 10.535156 107.527344 11.277344 C 107.53125 12.015625 107.601562 12.75 107.75 13.476562 C 107.894531 14.199219 108.109375 14.90625 108.394531 15.589844 C 108.679688 16.269531 109.027344 16.921875 109.4375 17.535156 C 109.851562 18.152344 110.316406 18.71875 110.84375 19.242188 C 111.367188 19.765625 111.933594 20.234375 112.550781 20.644531 C 113.167969 21.054688 113.816406 21.402344 114.5 21.6875 C 115.183594 21.972656 115.890625 22.1875 116.617188 22.332031 C 117.34375 22.476562 118.078125 22.550781 118.816406 22.554688 Z M 118.816406 22.554688 " fill-opacity="0.78" fill-rule="evenodd"/><path fill="#f15c22" d="M 49.472656 47.691406 C 50.035156 47.6875 50.589844 47.632812 51.136719 47.519531 C 51.6875 47.40625 52.222656 47.242188 52.738281 47.027344 C 53.253906 46.8125 53.746094 46.546875 54.210938 46.234375 C 54.675781 45.921875 55.105469 45.566406 55.5 45.167969 C 55.894531 44.769531 56.246094 44.339844 56.558594 43.871094 C 56.867188 43.40625 57.128906 42.914062 57.339844 42.394531 C 57.554688 41.875 57.714844 41.34375 57.820312 40.792969 C 57.929688 40.242188 57.980469 39.6875 57.980469 39.128906 C 57.976562 38.570312 57.921875 38.015625 57.8125 37.464844 C 57.699219 36.917969 57.535156 36.382812 57.320312 35.867188 C 57.105469 35.351562 56.839844 34.859375 56.527344 34.394531 C 56.214844 33.929688 55.859375 33.5 55.464844 33.105469 C 55.066406 32.710938 54.632812 32.359375 54.167969 32.046875 C 53.699219 31.738281 53.207031 31.476562 52.691406 31.261719 C 52.171875 31.050781 51.636719 30.890625 51.085938 30.78125 C 50.539062 30.671875 49.980469 30.617188 49.421875 30.621094 C 48.859375 30.621094 48.304688 30.675781 47.757812 30.785156 C 47.207031 30.894531 46.671875 31.058594 46.15625 31.273438 C 45.636719 31.488281 45.144531 31.75 44.679688 32.0625 C 44.214844 32.375 43.785156 32.726562 43.386719 33.125 C 42.992188 33.519531 42.636719 33.949219 42.328125 34.417969 C 42.015625 34.882812 41.753906 35.375 41.539062 35.890625 C 41.324219 36.410156 41.160156 36.941406 41.054688 37.492188 C 40.945312 38.039062 40.890625 38.59375 40.890625 39.15625 C 40.890625 39.714844 40.945312 40.273438 41.058594 40.824219 C 41.167969 41.375 41.332031 41.90625 41.550781 42.425781 C 41.765625 42.945312 42.03125 43.4375 42.34375 43.902344 C 42.660156 44.371094 43.015625 44.800781 43.414062 45.195312 C 43.8125 45.59375 44.246094 45.945312 44.714844 46.257812 C 45.179688 46.570312 45.675781 46.832031 46.195312 47.046875 C 46.714844 47.257812 47.25 47.421875 47.800781 47.527344 C 48.355469 47.636719 48.910156 47.691406 49.472656 47.691406 Z M 49.472656 47.691406 " fill-opacity="0.78" fill-rule="evenodd"/><path fill="#fbad17" d="M 252.605469 134.769531 C 252.605469 135.9375 252.574219 137.105469 252.519531 138.269531 C 252.460938 139.4375 252.375 140.601562 252.261719 141.761719 C 252.144531 142.925781 252.003906 144.082031 251.832031 145.238281 C 251.660156 146.390625 251.460938 147.542969 251.230469 148.6875 C 251.003906 149.832031 250.746094 150.96875 250.464844 152.101562 C 250.179688 153.234375 249.867188 154.359375 249.527344 155.476562 C 249.191406 156.59375 248.824219 157.703125 248.429688 158.800781 C 248.035156 159.898438 247.617188 160.988281 247.167969 162.066406 C 246.722656 163.144531 246.246094 164.210938 245.746094 165.269531 C 245.25 166.324219 244.722656 167.367188 244.171875 168.394531 C 243.621094 169.425781 243.046875 170.441406 242.445312 171.441406 C 241.84375 172.441406 241.21875 173.429688 240.570312 174.398438 C 239.921875 175.371094 239.246094 176.324219 238.550781 177.261719 C 237.855469 178.199219 237.136719 179.117188 236.394531 180.019531 C 235.652344 180.921875 234.890625 181.808594 234.105469 182.671875 C 233.320312 183.535156 232.515625 184.382812 231.6875 185.207031 C 230.863281 186.03125 230.015625 186.835938 229.152344 187.621094 C 228.285156 188.40625 227.398438 189.167969 226.496094 189.90625 C 225.59375 190.648438 224.671875 191.367188 223.734375 192.0625 C 222.796875 192.757812 221.839844 193.429688 220.867188 194.078125 C 219.894531 194.726562 218.910156 195.351562 217.90625 195.949219 C 216.90625 196.550781 215.886719 197.125 214.859375 197.675781 C 213.828125 198.226562 212.785156 198.75 211.726562 199.25 C 210.671875 199.75 209.601562 200.222656 208.523438 200.667969 C 207.441406 201.117188 206.351562 201.535156 205.253906 201.929688 C 204.152344 202.324219 203.042969 202.6875 201.925781 203.027344 C 200.804688 203.367188 199.679688 203.675781 198.546875 203.960938 C 197.414062 204.246094 196.273438 204.5 195.128906 204.726562 C 193.980469 204.957031 192.828125 205.15625 191.671875 205.328125 C 190.519531 205.496094 189.359375 205.640625 188.195312 205.753906 C 187.03125 205.871094 185.867188 205.957031 184.699219 206.011719 C 183.53125 206.070312 182.363281 206.097656 181.195312 206.097656 C 180.027344 206.097656 178.859375 206.070312 177.691406 206.011719 C 176.523438 205.957031 175.359375 205.871094 174.195312 205.753906 C 173.035156 205.640625 171.875 205.496094 170.71875 205.328125 C 169.5625 205.15625 168.410156 204.957031 167.265625 204.726562 C 166.117188 204.5 164.980469 204.246094 163.84375 203.960938 C 162.710938 203.675781 161.585938 203.367188 160.46875 203.027344 C 159.347656 202.6875 158.238281 202.324219 157.140625 201.929688 C 156.039062 201.535156 154.949219 201.117188 153.871094 200.667969 C 152.789062 200.222656 151.722656 199.75 150.664062 199.25 C 149.609375 198.75 148.566406 198.226562 147.535156 197.675781 C 146.503906 197.125 145.488281 196.550781 144.484375 195.949219 C 143.484375 195.351562 142.496094 194.726562 141.523438 194.078125 C 140.550781 193.429688 139.597656 192.757812 138.660156 192.0625 C 137.71875 191.367188 136.796875 190.648438 135.894531 189.90625 C 134.992188 189.167969 134.105469 188.40625 133.242188 187.621094 C 132.375 186.835938 131.53125 186.03125 130.703125 185.207031 C 129.875 184.382812 129.070312 183.535156 128.285156 182.671875 C 127.5 181.808594 126.738281 180.921875 125.996094 180.019531 C 125.253906 179.117188 124.535156 178.199219 123.839844 177.261719 C 123.144531 176.324219 122.472656 175.371094 121.824219 174.398438 C 121.171875 173.429688 120.546875 172.441406 119.949219 171.441406 C 119.347656 170.441406 118.769531 169.425781 118.21875 168.394531 C 117.667969 167.367188 117.144531 166.324219 116.644531 165.269531 C 116.144531 164.210938 115.671875 163.144531 115.222656 162.066406 C 114.777344 160.988281 114.355469 159.898438 113.960938 158.800781 C 113.570312 157.703125 113.203125 156.59375 112.863281 155.476562 C 112.523438 154.359375 112.210938 153.234375 111.929688 152.101562 C 111.644531 150.96875 111.386719 149.832031 111.160156 148.6875 C 110.933594 147.542969 110.734375 146.390625 110.5625 145.238281 C 110.390625 144.082031 110.246094 142.925781 110.132812 141.761719 C 110.015625 140.601562 109.929688 139.4375 109.875 138.269531 C 109.816406 137.105469 109.789062 135.9375 109.789062 134.769531 C 109.789062 133.605469 109.816406 132.4375 109.875 131.269531 C 109.929688 130.105469 110.015625 128.941406 110.132812 127.78125 C 110.246094 126.617188 110.390625 125.460938 110.5625 124.304688 C 110.734375 123.152344 110.933594 122 111.160156 120.855469 C 111.386719 119.710938 111.644531 118.574219 111.929688 117.441406 C 112.210938 116.308594 112.523438 115.183594 112.863281 114.066406 C 113.203125 112.949219 113.570312 111.839844 113.960938 110.742188 C 114.355469 109.644531 114.777344 108.554688 115.222656 107.476562 C 115.671875 106.398438 116.144531 105.332031 116.644531 104.273438 C 117.144531 103.21875 117.667969 102.175781 118.21875 101.148438 C 118.769531 100.117188 119.347656 99.101562 119.949219 98.101562 C 120.546875 97.101562 121.171875 96.113281 121.824219 95.144531 C 122.472656 94.171875 123.144531 93.21875 123.839844 92.28125 C 124.535156 91.34375 125.253906 90.425781 125.996094 89.523438 C 126.738281 88.621094 127.5 87.734375 128.285156 86.871094 C 129.070312 86.007812 129.875 85.160156 130.703125 84.335938 C 131.53125 83.511719 132.375 82.707031 133.242188 81.921875 C 134.105469 81.136719 134.992188 80.375 135.894531 79.632812 C 136.796875 78.894531 137.71875 78.175781 138.660156 77.480469 C 139.597656 76.785156 140.550781 76.113281 141.523438 75.464844 C 142.496094 74.816406 143.484375 74.191406 144.484375 73.59375 C 145.488281 72.992188 146.503906 72.417969 147.535156 71.867188 C 148.566406 71.316406 149.609375 70.792969 150.664062 70.292969 C 151.722656 69.792969 152.789062 69.320312 153.871094 68.875 C 154.949219 68.425781 156.039062 68.007812 157.140625 67.613281 C 158.238281 67.21875 159.347656 66.855469 160.46875 66.515625 C 161.585938 66.175781 162.710938 65.867188 163.84375 65.582031 C 164.980469 65.296875 166.117188 65.042969 167.265625 64.816406 C 168.410156 64.585938 169.5625 64.386719 170.71875 64.214844 C 171.875 64.042969 173.035156 63.902344 174.195312 63.789062 C 175.359375 63.671875 176.523438 63.585938 177.691406 63.53125 C 178.859375 63.472656 180.027344 63.445312 181.195312 63.445312 C 182.363281 63.445312 183.53125 63.472656 184.699219 63.53125 C 185.867188 63.585938 187.03125 63.671875 188.195312 63.789062 C 189.359375 63.902344 190.519531 64.042969 191.671875 64.214844 C 192.828125 64.386719 193.980469 64.585938 195.128906 64.816406 C 196.273438 65.042969 197.414062 65.296875 198.546875 65.582031 C 199.679688 65.867188 200.804688 66.175781 201.925781 66.515625 C 203.042969 66.855469 204.152344 67.21875 205.253906 67.613281 C 206.351562 68.007812 207.441406 68.425781 208.523438 68.875 C 209.601562 69.320312 210.671875 69.792969 211.726562 70.292969 C 212.785156 70.792969 213.828125 71.316406 214.859375 71.867188 C 215.886719 72.417969 216.90625 72.992188 217.90625 73.59375 C 218.910156 74.191406 219.894531 74.816406 220.867188 75.464844 C 221.839844 76.113281 222.796875 76.785156 223.734375 77.480469 C 224.671875 78.175781 225.59375 78.894531 226.496094 79.632812 C 227.398438 80.375 228.285156 81.136719 229.152344 81.921875 C 230.015625 82.707031 230.863281 83.511719 231.6875 84.335938 C 232.515625 85.160156 233.320312 86.007812 234.105469 86.871094 C 234.890625 87.734375 235.652344 88.621094 236.394531 89.523438 C 237.136719 90.425781 237.855469 91.34375 238.550781 92.28125 C 239.246094 93.21875 239.921875 94.171875 240.570312 95.144531 C 241.21875 96.113281 241.84375 97.101562 242.445312 98.101562 C 243.046875 99.101562 243.621094 100.117188 244.171875 101.148438 C 244.722656 102.175781 245.25 103.21875 245.746094 104.273438 C 246.246094 105.332031 246.722656 106.398438 247.167969 107.476562 C 247.617188 108.554688 248.035156 109.644531 248.429688 110.742188 C 248.824219 111.839844 249.191406 112.949219 249.527344 114.066406 C 249.867188 115.183594 250.179688 116.308594 250.464844 117.441406 C 250.746094 118.574219 251.003906 119.710938 251.230469 120.855469 C 251.460938 122 251.660156 123.152344 251.832031 124.304688 C 252.003906 125.460938 252.144531 126.617188 252.261719 127.78125 C 252.375 128.941406 252.460938 130.105469 252.519531 131.269531 C 252.574219 132.4375 252.605469 133.605469 252.605469 134.769531 Z M 252.605469 134.769531 " fill-opacity="0.78" fill-rule="nonzero"/><path fill="#ec008b" d="M 220.644531 26.808594 C 254.863281 33.855469 283.53125 50.980469 300.441406 75.609375 C 300.296875 76.652344 300.117188 77.6875 299.90625 78.71875 C 299.699219 79.753906 299.457031 80.777344 299.183594 81.792969 C 298.910156 82.808594 298.605469 83.816406 298.273438 84.816406 C 297.9375 85.8125 297.570312 86.800781 297.171875 87.777344 C 296.777344 88.75 296.351562 89.714844 295.894531 90.664062 C 295.4375 91.613281 294.953125 92.546875 294.4375 93.464844 C 293.921875 94.382812 293.378906 95.285156 292.808594 96.171875 C 292.238281 97.058594 291.644531 97.925781 291.019531 98.773438 C 290.394531 99.621094 289.746094 100.449219 289.070312 101.257812 C 288.394531 102.066406 287.695312 102.851562 286.96875 103.617188 C 286.246094 104.382812 285.496094 105.125 284.726562 105.84375 C 283.957031 106.5625 283.164062 107.257812 282.351562 107.925781 C 281.539062 108.59375 280.707031 109.238281 279.851562 109.859375 C 279 110.476562 278.128906 111.066406 277.238281 111.632812 C 276.347656 112.195312 275.441406 112.730469 274.519531 113.238281 C 273.59375 113.746094 272.65625 114.226562 271.703125 114.675781 C 270.75 115.125 269.785156 115.546875 268.804688 115.9375 C 267.828125 116.328125 266.835938 116.6875 265.835938 117.015625 C 264.832031 117.34375 263.824219 117.640625 262.804688 117.910156 C 261.785156 118.175781 260.757812 118.410156 259.722656 118.613281 C 258.6875 118.816406 257.648438 118.984375 256.605469 119.125 C 255.558594 119.261719 254.511719 119.371094 253.460938 119.441406 C 252.40625 119.515625 251.355469 119.558594 250.300781 119.566406 C 249.246094 119.574219 248.195312 119.550781 247.140625 119.492188 C 246.089844 119.4375 245.039062 119.347656 243.992188 119.226562 C 242.945312 119.105469 241.902344 118.949219 240.863281 118.765625 C 239.828125 118.578125 238.796875 118.359375 237.773438 118.109375 C 236.75 117.859375 235.734375 117.578125 234.726562 117.265625 C 233.722656 116.953125 232.726562 116.609375 231.738281 116.234375 C 230.753906 115.859375 229.78125 115.457031 228.820312 115.023438 C 227.863281 114.585938 226.917969 114.125 225.984375 113.628906 C 225.054688 113.136719 224.136719 112.617188 223.238281 112.066406 C 222.339844 111.515625 221.460938 110.9375 220.597656 110.335938 C 219.734375 109.730469 218.890625 109.101562 218.066406 108.445312 C 217.242188 107.789062 216.4375 107.105469 215.65625 106.398438 C 214.875 105.695312 214.117188 104.964844 213.378906 104.210938 C 212.640625 103.457031 211.929688 102.683594 211.242188 101.886719 C 210.554688 101.089844 209.890625 100.269531 209.253906 99.433594 C 208.613281 98.59375 208.003906 97.734375 207.417969 96.859375 C 206.835938 95.984375 206.277344 95.089844 205.75 94.179688 C 205.21875 93.269531 204.71875 92.34375 204.246094 91.402344 C 203.777344 90.460938 203.332031 89.503906 202.921875 88.535156 C 202.507812 87.566406 202.125 86.585938 201.773438 85.59375 C 201.421875 84.601562 201.101562 83.597656 200.8125 82.585938 C 200.523438 81.574219 200.265625 80.554688 200.039062 79.523438 C 199.8125 78.496094 199.621094 77.460938 199.457031 76.421875 C 199.296875 75.382812 199.167969 74.335938 199.070312 73.289062 C 198.972656 72.242188 198.90625 71.191406 198.875 70.136719 C 198.84375 69.085938 198.84375 68.03125 198.875 66.980469 C 198.910156 65.929688 198.976562 64.878906 199.074219 63.828125 C 199.171875 62.78125 199.304688 61.738281 199.464844 60.695312 C 199.628906 59.65625 199.824219 58.621094 200.050781 57.59375 C 200.28125 56.566406 200.539062 55.546875 200.828125 54.535156 C 201.121094 53.523438 201.441406 52.519531 201.792969 51.527344 C 202.148438 50.535156 202.53125 49.554688 202.945312 48.585938 C 203.355469 47.617188 203.800781 46.664062 204.273438 45.722656 C 204.746094 44.78125 205.246094 43.855469 205.777344 42.945312 C 206.308594 42.035156 206.867188 41.144531 207.449219 40.269531 C 208.035156 39.394531 208.648438 38.535156 209.289062 37.699219 C 209.925781 36.859375 210.589844 36.042969 211.28125 35.246094 C 211.96875 34.449219 212.683594 33.675781 213.417969 32.925781 C 214.15625 32.171875 214.917969 31.441406 215.699219 30.738281 C 216.480469 30.03125 217.285156 29.351562 218.109375 28.695312 C 218.933594 28.039062 219.78125 27.410156 220.644531 26.808594 Z M 220.644531 26.808594 " fill-opacity="0.78" fill-rule="evenodd"/><path fill="#56ba48" d="M 157.152344 103.511719 C 158.554688 103.511719 159.953125 103.445312 161.347656 103.308594 C 162.738281 103.171875 164.125 102.96875 165.496094 102.695312 C 166.871094 102.421875 168.230469 102.082031 169.570312 101.675781 C 170.910156 101.269531 172.226562 100.800781 173.523438 100.265625 C 174.816406 99.730469 176.082031 99.132812 177.316406 98.472656 C 178.550781 97.816406 179.753906 97.097656 180.917969 96.320312 C 182.082031 95.542969 183.207031 94.710938 184.289062 93.824219 C 185.371094 92.9375 186.410156 91.996094 187.398438 91.007812 C 188.390625 90.019531 189.332031 88.984375 190.21875 87.902344 C 191.109375 86.820312 191.941406 85.699219 192.71875 84.535156 C 193.5 83.371094 194.21875 82.175781 194.878906 80.941406 C 195.539062 79.707031 196.136719 78.445312 196.675781 77.152344 C 197.210938 75.859375 197.683594 74.542969 198.089844 73.203125 C 198.496094 71.867188 198.835938 70.507812 199.109375 69.136719 C 199.382812 67.765625 199.589844 66.382812 199.726562 64.992188 C 199.863281 63.597656 199.933594 62.203125 199.933594 60.804688 C 199.933594 59.402344 199.863281 58.007812 199.726562 56.617188 C 199.589844 55.222656 199.386719 53.839844 199.113281 52.46875 C 198.839844 51.097656 198.5 49.742188 198.09375 48.402344 C 197.6875 47.0625 197.214844 45.746094 196.679688 44.453125 C 196.144531 43.160156 195.546875 41.898438 194.886719 40.664062 C 194.226562 39.429688 193.507812 38.230469 192.730469 37.066406 C 191.953125 35.902344 191.117188 34.78125 190.230469 33.699219 C 189.339844 32.617188 188.402344 31.582031 187.410156 30.59375 C 186.421875 29.601562 185.386719 28.664062 184.300781 27.777344 C 183.21875 26.890625 182.097656 26.054688 180.929688 25.277344 C 179.765625 24.5 178.566406 23.78125 177.332031 23.125 C 176.097656 22.464844 174.832031 21.867188 173.539062 21.332031 C 172.242188 20.792969 170.925781 20.324219 169.585938 19.917969 C 168.246094 19.511719 166.890625 19.171875 165.515625 18.898438 C 164.140625 18.625 162.757812 18.421875 161.363281 18.28125 C 159.96875 18.144531 158.570312 18.078125 157.171875 18.078125 C 155.769531 18.078125 154.375 18.144531 152.980469 18.28125 C 151.585938 18.417969 150.203125 18.625 148.828125 18.898438 C 147.453125 19.167969 146.097656 19.507812 144.757812 19.914062 C 143.414062 20.320312 142.097656 20.792969 140.804688 21.328125 C 139.511719 21.863281 138.246094 22.460938 137.007812 23.121094 C 135.773438 23.777344 134.574219 24.496094 133.410156 25.273438 C 132.246094 26.050781 131.121094 26.882812 130.039062 27.773438 C 128.957031 28.660156 127.917969 29.597656 126.929688 30.585938 C 125.9375 31.574219 124.996094 32.613281 124.109375 33.691406 C 123.21875 34.773438 122.386719 35.898438 121.609375 37.058594 C 120.832031 38.222656 120.113281 39.421875 119.449219 40.65625 C 118.789062 41.890625 118.191406 43.152344 117.65625 44.445312 C 117.121094 45.738281 116.648438 47.054688 116.242188 48.394531 C 115.835938 49.730469 115.496094 51.089844 115.222656 52.460938 C 114.949219 53.832031 114.742188 55.214844 114.605469 56.605469 C 114.46875 58 114.402344 59.394531 114.402344 60.792969 C 114.402344 62.191406 114.472656 63.585938 114.613281 64.976562 C 114.753906 66.371094 114.960938 67.75 115.234375 69.121094 C 115.511719 70.492188 115.851562 71.847656 116.257812 73.183594 C 116.667969 74.519531 117.140625 75.835938 117.675781 77.125 C 118.210938 78.417969 118.8125 79.679688 119.472656 80.914062 C 120.132812 82.144531 120.851562 83.34375 121.628906 84.503906 C 122.40625 85.667969 123.242188 86.789062 124.128906 87.871094 C 125.015625 88.949219 125.957031 89.984375 126.945312 90.972656 C 127.933594 91.960938 128.96875 92.898438 130.050781 93.789062 C 131.132812 94.675781 132.253906 95.507812 133.417969 96.285156 C 134.582031 97.0625 135.78125 97.78125 137.015625 98.441406 C 138.25 99.101562 139.511719 99.699219 140.804688 100.234375 C 142.097656 100.773438 143.414062 101.246094 144.75 101.652344 C 146.089844 102.058594 147.445312 102.402344 148.816406 102.675781 C 150.191406 102.953125 151.574219 103.160156 152.964844 103.296875 C 154.359375 103.4375 155.753906 103.507812 157.152344 103.511719 Z M 157.152344 103.511719 " fill-opacity="0.78" fill-rule="evenodd"/></svg>