<svg
      fillRule="evenodd"
      viewBox="0 0 2048 2048"
      xmlns="http://www.w3.org/2000/svg"
    >
      <defs />
      <g id="Layer_x0020_1">
        <g id="_220499688">
          <circle
            cx="767"
            cy="769"
            fill="#b3e5fc"
            r="452"
            stroke="#373435"
            strokeWidth="2.083"
          />
          <path
            className="fil1"
            d="M405 407c100-100 231-150 362-150s262 50 362 150 150 231 150 362-50 262-150 362-231 150-362 150-262-50-362-150-150-231-150-362 50-262 150-362zm362-86c-115 0-229 44-317 131-87 87-131 202-131 317s44 229 131 317c87 87 202 131 317 131s229-44 317-131c87-87 131-202 131-317s-44-229-131-317c-87-87-202-131-317-131z"
          />
          <path
            d="M578 1006c14 11 16 31 5 45s-31 16-45 5c-6-5-11-9-16-14-6-5-11-10-15-14-72-72-108-166-108-260s36-188 108-260c2-2 6-6 12-11 13-12 33-11 45 2s11 33-2 45c-2 1-5 5-9 9-59 59-89 137-89 214 0 78 30 155 89 214 4 4 9 8 13 12 5 4 9 8 13 11z"
            fill="#e1f5fe"
            fillRule="nonzero"
          />
          <path className="fil1" d="M1115 1066l222 222-46 45-222-222z" />
          <path
            className="fil3"
            d="M1262 1355l93-93c10-10 23-15 36-15s26 5 36 15l352 349c10 10 15 23 15 36s-5 26-15 36l-93 93c-10 10-23 15-36 15s-26-5-36-15l-352-349c-10-10-15-23-15-36s5-26 15-36z"
          />
          <path
            d="M1309 1308l46-46c10-10 23-15 36-15s26 5 36 15l352 349c10 10 15 23 15 36s-5 26-15 36l-47 47-422-422z"
            fill="#00406f"
            fillRule="nonzero"
          />
          <path
            className="fil3"
            d="M1262 1355l47-47 422 422-46 46c-10 10-23 15-36 15s-26-5-36-15l-352-349c-10-10-15-23-15-36s5-26 15-36z"
          />
        </g>
        <path d="M0 0h2048v2048H0z" fill="none" />
      </g>
    </svg>